# xmcd CD database file
#
# Track frame offsets:
#	150
#	16325
#	43147
#
# Disc length: 790 seconds
#
# Revision: 0
# Processed by: cddbd v1.5PL3 Copyright (c) Steve Scherf et al.
# Submitted via: CDex 1.51
#
DISCID=1d031403
DTITLE=前田亘輝 - Try Boy, Try Girl
DYEAR=1993
DGENRE=JPop
TTITLE0=Try Boy, Try Girl
TTITLE1=Face To Face
TTITLE2=Try Boy, Try Girl (Original Karaoke)
EXTD=YEAR: 1993
EXTT0=
EXTT1=
EXTT2=
PLAYORDER=
